<svg width="33" height="33" viewBox="0 0 33 33" fill="none" xmlns="http://www.w3.org/2000/svg">
<path d="M16.5 27.5H6.875C6.14565 27.5 5.44618 27.2103 4.93046 26.6945C4.41473 26.1788 4.125 25.4793 4.125 24.75V12.375C4.125 11.6457 4.41473 10.9462 4.93046 10.4305C5.44618 9.91473 6.14565 9.625 6.875 9.625H8.25C8.97935 9.625 9.67882 9.33527 10.1945 8.81954C10.7103 8.30382 11 7.60435 11 6.875C11 6.51033 11.1449 6.16059 11.4027 5.90273C11.6606 5.64487 12.0103 5.5 12.375 5.5H20.625C20.9897 5.5 21.3394 5.64487 21.5973 5.90273C21.8551 6.16059 22 6.51033 22 6.875C22 7.60435 22.2897 8.30382 22.8055 8.81954C23.3212 9.33527 24.0207 9.625 24.75 9.625H26.125C26.8543 9.625 27.5538 9.91473 28.0695 10.4305C28.5853 10.9462 28.875 11.6457 28.875 12.375V17.1875" stroke="black" stroke-width="2" stroke-linecap="round" stroke-linejoin="round"/>
<path d="M26.125 30.25V22M26.125 22L30.25 26.125M26.125 22L22 26.125M16.5 22C17.594 22 18.6432 21.5654 19.4168 20.7918C20.1904 20.0182 20.625 18.969 20.625 17.875C20.625 16.781 20.1904 15.7318 19.4168 14.9582C18.6432 14.1846 17.594 13.75 16.5 13.75C15.406 13.75 14.3568 14.1846 13.5832 14.9582C12.8096 15.7318 12.375 16.781 12.375 17.875C12.375 18.969 12.8096 20.0182 13.5832 20.7918C14.3568 21.5654 15.406 22 16.5 22Z" stroke="black" stroke-width="2" stroke-linecap="round" stroke-linejoin="round"/>
</svg>
